<?xml version="1.0" encoding="UTF-8" standalone="no"?>
<!DOCTYPE svg PUBLIC "-//W3C//DTD SVG 1.1//EN" "http://www.w3.org/Graphics/SVG/1.1/DTD/svg11.dtd">
<svg width="100%" height="100%" viewBox="0 0 110 110" version="1.1" xmlns="http://www.w3.org/2000/svg" xmlns:xlink="http://www.w3.org/1999/xlink" xml:space="preserve" xmlns:serif="http://www.serif.com/" style="fill-rule:evenodd;clip-rule:evenodd;stroke-linejoin:round;stroke-miterlimit:1.41421;">
    <g transform="matrix(1,0,0,1,-825.19,-380.931)">
        <path d="M879.949,380.931C910.172,380.931 934.709,405.468 934.709,435.691C934.709,465.913 910.172,490.45 879.949,490.45C849.727,490.45 825.19,465.913 825.19,435.691C825.19,405.468 849.727,380.931 879.949,380.931ZM879.949,388.616C905.931,388.616 927.024,409.709 927.024,435.691C927.024,461.672 905.931,482.765 879.949,482.765C853.968,482.765 832.875,461.672 832.875,435.691C832.875,409.709 853.968,388.616 879.949,388.616Z" style="fill:rgb(230,101,105);"/>
    </g>
    <g transform="matrix(0.336675,0,0,0.366773,20.9239,15.7407)">
        <path d="M37,51L101,32L164,51L164,98L101,82L37,98L37,51Z" style="fill:rgb(230,101,105);"/>
        <path d="M60,14L101,0L141,14L141,33L101,20L60,33L60,14Z" style="fill:rgb(230,101,105);"/>
        <path d="M0,118L101,94L201,118C202,118 156,213 156,213L101,226L45,213C45,213 -1,118 0,118ZM156,122C151,121 147,123 146,128C145,133 148,137 152,138C157,139 162,136 163,132C164,127 161,123 156,122ZM126,115C131,116 134,121 133,125C132,130 128,133 123,132C118,131 115,126 116,122C117,117 122,114 126,115ZM45,122C50,121 54,123 55,128C56,133 53,137 49,138C44,139 40,136 39,132C38,127 41,123 45,122ZM75,115C70,116 67,121 68,125C69,130 74,133 78,132C83,131 86,126 85,122C84,117 79,114 75,115Z" style="fill:rgb(230,101,105);"/>
    </g>
</svg>
